<svg width="197" height="32" fill="none" xmlns="http://www.w3.org/2000/svg"><g clip-path="url(#clip0_2_437)" fill="#fff" fill-opacity=".5"><path d="M17.33.697h18.387a1.177 1.177 0 01-.24.66c-.623 1.047-1.183 2.138-1.795 3.185-.865 1.504-1.674 3.036-2.554 4.534-.557 1.078-1.186 2.123-1.78 3.183H18.63c-.186 0-.372.009-.558.02-.156.403-.414.756-.623 1.134-.272.434-.493.897-.762 1.33-.285.584-.679 1.106-.965 1.688-.591.985-1.144 1.985-1.723 2.981a113.411 113.411 0 00-1.77 3.097c-.245.371-.47.754-.675 1.147-1.209 2.065-2.379 4.148-3.59 6.21a2.485 2.485 0 01-.401.612c-2.07-.014-4.14 0-6.209 0-.255.005-.508.04-.755.104 0-.562.383-1.013.641-1.485.312-.634.727-1.222 1.04-1.857 2.48-4.355 4.934-8.726 7.407-13.084.56-.947 1.041-1.914 1.604-2.843.704-1.221 1.36-2.47 2.092-3.678.233-.506.548-.969.805-1.462.911-1.593 1.806-3.195 2.715-4.787.108-.25.252-.481.428-.69z"/><path d="M38.637 7.11c1.224-2.1 2.407-4.223 3.649-6.314h6.642c.096.005.192.02.286.044-.221.329-.406.677-.6 1.019a3286.639 3286.639 0 00-4.792 8.468c-.67 1.15-1.292 2.326-1.97 3.47l-.067.023-.013.143c-3.122 5.498-6.235 11-9.337 16.506-6.097.006-12.194.006-18.292 0 .347-.712.758-1.392 1.144-2.083 1.736-3.134 3.518-6.24 5.23-9.374 3.746-.006 7.492-.006 11.238 0 2.314-3.955 4.579-7.941 6.875-11.903h.007zM107.18.715v30.116h5.318V9.654l9.699 13.947 9.622-14.279v21.509h5.473V.715h-5.887l-9.169 13.902L112.965.715h-5.785zM82.308 8.483h3.475v22.602h-3.475V8.482zM82.01.11h4.072V3.9H82.01V.11zm10.413 1.896h3.63v6.477h7.159v3.156h-7.158v13.427a3.136 3.136 0 00.356 1.489c.615 1.145 2.285 2.504 6.802.916v2.926s-4.124 2.29-7.858.205c0 0-1.855-.773-2.635-3.381a7.48 7.48 0 01-.296-2.15V11.59l-3.06.05V8.483h3.085l-.025-6.477zM142.894.715v30.319h23.082v-4.887h-17.453v-8.043h15.379v-4.811h-15.406v-7.66h17.3V.715h-22.902zm25.248 0h6.575l7.548 10.645L189.753.715h6.574L185.59 15.501l11.407 15.507h-6.925l-7.781-11.325-8.157 11.35h-6.575l11.243-15.397-10.66-14.92zM71.674 15.304S76.758 13.421 76.446 8c0 0-.041-5.214-6.023-6.824a11.721 11.721 0 00-3.05-.385H53.026l.04 30.116H68.51s9.038-.191 9.675-8.094c0 0 .647-5.524-6.511-7.509zM56.734 3.901h9.157c7.183-.025 6.976 4.939 6.976 4.939.108 5.662-6.484 5.548-6.484 5.548h-9.648V3.9zM67.94 27.724H56.735V17.24h10.712c7.183-.026 6.977 4.937 6.977 4.937.107 5.663-6.485 5.548-6.485 5.548z"/></g><defs><clipPath id="clip0_2_437"><path fill="#fff" transform="translate(.598 .11)" d="M0 0h196.398v31.369H0z"/></clipPath></defs></svg>