<svg width="350" height="54" fill="none" xmlns="http://www.w3.org/2000/svg"><path d="M94.376 36.362v-8.538c0-4.418-3.569-7.992-8.03-7.992h-.348c-1.735 0-3.47.596-4.312 1.638V11.344c0-1.242-.942-1.886-1.884-1.886s-1.884.645-1.884 1.886v31.222c0 1.192.942 1.787 1.884 1.787.842 0 1.685-.497 1.834-1.488.694.694 2.131 1.488 4.263 1.488h.446c4.412 0 8.03-3.573 8.03-7.991zm-3.767 0c0 2.333-1.884 4.22-4.264 4.22H85.9c-2.23 0-4.213-1.49-4.213-3.922v-9.233c0-2.284 1.983-3.822 4.213-3.822h.446c2.38 0 4.264 1.886 4.264 4.219v8.538zm19.58 6.105c0-.943-.595-1.886-1.883-1.886-1.537-.05-2.727-1.24-2.727-2.78V11.344c0-1.242-.941-1.886-1.884-1.886-.941 0-1.883.645-1.883 1.886v26.457c0 3.623 2.875 6.552 6.494 6.552 1.288 0 1.883-.943 1.883-1.886zm21.612-6.105v-8.538c0-4.418-3.568-7.992-7.98-7.992h-.496a7.98 7.98 0 00-7.981 7.992v8.538a7.98 7.98 0 007.981 7.991h.496c4.411 0 7.98-3.573 7.98-7.991zm-3.767 0a4.213 4.213 0 01-4.213 4.22h-.447c-2.379 0-4.263-1.887-4.263-4.22v-8.538a4.213 4.213 0 014.214-4.22h.496a4.212 4.212 0 014.213 4.22v8.538zm26.619 0c0-1.29-.942-1.936-1.884-1.936-.891 0-1.834.645-1.883 1.936-.099 2.333-1.884 4.22-4.214 4.22h-.446c-2.379 0-4.263-1.887-4.263-4.22v-8.538a4.213 4.213 0 014.214-4.22h.495c2.33 0 4.114 1.738 4.213 4.27.05 1.241.992 1.837 1.884 1.837.942 0 1.884-.646 1.884-1.887 0-4.418-3.619-7.992-7.982-7.992h-.495a7.981 7.981 0 00-7.981 7.992v8.538a7.98 7.98 0 007.981 7.991h.495a7.98 7.98 0 007.982-7.991zm23.744 6.105c0-.298-.049-.645-.248-.943l-6.791-11.913 6.147-6.552c.397-.398.545-.844.545-1.291 0-.994-.843-1.936-1.933-1.936-.446 0-.942.198-1.339.645l-9.418 10.027v-19.16c0-1.242-.942-1.886-1.884-1.886s-1.884.645-1.884 1.886v31.123c0 1.24.942 1.886 1.884 1.886s1.884-.645 1.884-1.886v-6.404l3.321-3.574 6.196 10.87c.397.697.991.994 1.587.994 1.14 0 1.933-.894 1.933-1.886zm21.413-6.105c0-1.29-.942-1.936-1.883-1.936-.892 0-1.835.645-1.884 1.936-.099 2.333-1.884 4.22-4.213 4.22h-.447c-2.379 0-4.263-1.887-4.263-4.22v-8.538a4.213 4.213 0 014.214-4.22h.496c2.329 0 4.114 1.738 4.213 4.27.049 1.241.992 1.837 1.884 1.837.942 0 1.883-.646 1.883-1.887 0-4.418-3.618-7.992-7.98-7.992h-.496a7.981 7.981 0 00-7.981 7.992v8.538a7.98 7.98 0 007.981 7.991h.496a7.98 7.98 0 007.98-7.991zm23.398 6.105V27.824a7.98 7.98 0 00-7.982-7.992h-.396c-1.735 0-3.47.596-4.314 1.49v-9.978c0-1.242-.941-1.886-1.881-1.886-.943 0-1.884.645-1.884 1.886v31.123c0 1.24.942 1.886 1.884 1.886.941 0 1.881-.645 1.881-1.886V27.576c0-2.582 2.233-3.971 4.513-3.971 2.18 0 4.411 1.34 4.411 4.219v14.643c0 1.24.942 1.886 1.884 1.886s1.884-.645 1.884-1.886zm24.785-.048c0-.796-.496-1.59-1.587-1.788-.891-.149-1.288-.746-1.288-1.639V27.476c0-4.269-3.371-7.644-7.783-7.644h-.347c-2.627 0-5.8 1.043-7.386 4.616a1.945 1.945 0 00-.199.894c0 1.042.943 1.737 1.884 1.737.645 0 1.289-.297 1.686-.993.942-1.638 1.983-2.482 4.015-2.482h.347c2.182 0 4.015 1.093 4.015 4.02 0 .249 0 .646-.148.845-1.189 1.688-12.194.297-12.541 8.14v.596c0 4.617 3.965 7.148 7.981 7.148h.446a8.192 8.192 0 005.354-1.985c.644.943 1.685 1.688 3.37 1.935.1.05.248.05.348.05 1.188 0 1.833-.943 1.833-1.934zm-6.643-6.057c0 2.333-1.933 4.22-4.262 4.22h-.447c-2.528 0-4.213-1.341-4.213-3.476v-.397c.148-3.475 5.254-3.276 8.922-4.269v3.922zm16.358 6.105V21.719c0-1.242-.942-1.887-1.883-1.887-.941 0-1.884.646-1.884 1.887v20.748c0 1.24.943 1.886 1.884 1.886s1.883-.645 1.883-1.886zm24.388 0V27.824c0-5.46-3.718-7.992-7.931-7.992h-.446c-1.736 0-3.371.596-4.263 1.49-.197-.994-1.042-1.49-1.884-1.49-.992 0-1.933.695-1.933 1.887v20.748c0 1.24.942 1.886 1.884 1.886s1.883-.645 1.883-1.886V27.824c0-2.333 1.934-4.22 4.263-4.22h.447c2.379 0 4.262 1.887 4.262 4.22v14.643c0 1.24.943 1.886 1.884 1.886.942 0 1.834-.645 1.834-1.886zm19.453 0V21.719c0-1.242-.942-1.887-1.884-1.887-.941 0-1.883.646-1.883 1.887v20.748c0 1.24.942 1.886 1.883 1.886.942 0 1.884-.645 1.884-1.886zm23.842-6.105v-8.538c0-4.418-3.569-7.992-7.98-7.992h-.496c-4.412 0-7.98 3.574-7.98 7.992v8.538a7.98 7.98 0 007.98 7.991h.496a7.98 7.98 0 007.98-7.991zm-3.766 0a4.213 4.213 0 01-4.214 4.22h-.446c-2.381 0-4.263-1.887-4.263-4.22v-8.538a4.212 4.212 0 014.213-4.22h.496a4.213 4.213 0 014.214 4.22v8.538zM40.59 25.694a2.085 2.085 0 000 4.168 2.085 2.085 0 002.082-2.084 2.085 2.085 0 00-2.081-2.084zm9.624-5.782a2.084 2.084 0 000 4.168 2.086 2.086 0 002.082-2.084 2.085 2.085 0 00-2.082-2.084zm9.624-5.782a2.085 2.085 0 000 4.169 2.085 2.085 0 000-4.17zM30.967 8.347a2.085 2.085 0 000 4.168 2.085 2.085 0 000-4.168zm9.623-5.782a2.085 2.085 0 000 4.17 2.086 2.086 0 000-4.17zm0 11.565a2.085 2.085 0 000 4.169 2.085 2.085 0 000-4.169zm9.624-5.783a2.084 2.084 0 000 4.169 2.086 2.086 0 002.082-2.084c0-1.15-.934-2.085-2.082-2.085zm0 23.13a2.084 2.084 0 000 4.167 2.086 2.086 0 002.082-2.084 2.085 2.085 0 00-2.082-2.083zm9.624-5.783a2.085 2.085 0 000 4.168 2.084 2.084 0 000-4.168zM50.214 43.04a2.084 2.084 0 000 4.168 2.085 2.085 0 000-4.168zm9.624-5.782a2.085 2.085 0 000 4.168 2.084 2.084 0 000-4.168zM40.59 48.822a2.085 2.085 0 000 4.168 2.086 2.086 0 002.082-2.083 2.085 2.085 0 00-2.081-2.084zm0-11.564a2.085 2.085 0 000 4.168 2.085 2.085 0 000-4.168zm-9.623-17.346a2.085 2.085 0 000 4.168 2.085 2.085 0 000-4.168zm0 23.128a2.085 2.085 0 000 4.168 2.085 2.085 0 000-4.168zm0-11.563a2.085 2.085 0 000 4.167 2.085 2.085 0 000-4.167zM21.343 14.13a2.084 2.084 0 000 4.169 2.085 2.085 0 000-4.169zm0 23.128a2.084 2.084 0 000 4.168 2.085 2.085 0 002.082-2.084c0-1.15-.934-2.084-2.082-2.084zm0-11.564a2.085 2.085 0 000 4.168 2.085 2.085 0 002.082-2.084 2.086 2.086 0 00-2.082-2.084zm234.451-16.34c-1.044 0-1.895.85-1.895 1.896 0 1.046.851 1.897 1.895 1.897s1.894-.851 1.894-1.897-.85-1.896-1.894-1.896zm43.855 0a1.897 1.897 0 000 3.793 1.897 1.897 0 000-3.793zm-9.935 31.363a1.887 1.887 0 000 3.772 1.887 1.887 0 000-3.772z" fill="#fff" fill-opacity=".5"/></svg>