<svg width="171" height="54" fill="none" xmlns="http://www.w3.org/2000/svg"><g clip-path="url(#clip0_2_435)" fill-rule="evenodd" clip-rule="evenodd" fill="#fff" fill-opacity=".5"><path d="M57.19 26.053c-.208-2.377-2.04-4.547-4.561-4.547-2.522 0-4.318 2.17-4.56 4.547h9.12zm1.034.472a.496.496 0 01-.5.493H48.07c.241 2.378 2.037 4.548 4.559 4.548 1.727 0 3.006-.655 3.973-2.033.14-.188.346-.311.615-.198a.478.478 0 01.278.491.474.474 0 01-.065.189c-.966 1.69-2.9 2.515-4.801 2.515-3.246 0-5.562-2.893-5.562-5.994s2.316-5.995 5.562-5.995c3.244 0 5.59 2.886 5.596 5.984zm11.71-5.743c.278 0 .485.242.485.483a.471.471 0 01-.484.482h-2.591v10.129a.492.492 0 01-.483.482.494.494 0 01-.484-.482v-10.13H63.89a.474.474 0 01-.484-.481c0-.241.208-.483.484-.483h2.487v-3.708c0-.234.16-.45.39-.487.322-.053.577.169.577.474v3.72h2.59zm15.786 4.892v6.134a.492.492 0 01-.67.447.473.473 0 01-.297-.448v-6.133c0-2.067-1.174-4.134-3.489-4.134-2.97 0-4.248 2.584-4.075 5.237 0 .069.034.379.034.414v4.603c0 .234-.16.45-.39.488-.322.053-.577-.17-.577-.475V11.652c0-.24.208-.482.483-.482.277 0 .484.241.484.482v11.404c.83-1.481 2.314-2.481 4.041-2.481 2.833 0 4.456 2.481 4.456 5.1zm16.27.379c-.207-2.377-2.038-4.547-4.56-4.547s-4.318 2.17-4.56 4.547h9.12zm1.035.472a.494.494 0 01-.5.493h-9.654c.241 2.378 2.037 4.548 4.559 4.548 1.728 0 3.006-.655 3.973-2.033.14-.188.346-.311.615-.198a.482.482 0 01.26.292.478.478 0 01-.047.388c-.967 1.69-2.9 2.515-4.801 2.515-3.247 0-5.56-2.893-5.56-5.994s2.313-5.995 5.56-5.995c3.244 0 5.59 2.886 5.596 5.984h-.001zm11.849-5.295c0 .31-.172.482-.449.517-2.832.413-4.11 2.722-4.11 5.409v4.604c0 .234-.16.45-.391.488-.321.052-.577-.17-.577-.476V21.276c0-.233.159-.448.39-.487.323-.052.578.17.578.476V23.4c.794-1.345 2.383-2.618 4.041-2.618.242 0 .518.172.518.447zm14.819 4.823c-.208-2.377-2.038-4.547-4.56-4.547-2.521 0-4.317 2.17-4.559 4.547h9.119zm1.036.472a.498.498 0 01-.5.492h-9.655c.242 2.379 2.038 4.55 4.559 4.55 1.727 0 3.005-.656 3.972-2.034.142-.188.347-.311.616-.198a.467.467 0 01.274.348.47.47 0 01-.061.333c-.967 1.687-2.901 2.515-4.801 2.515-3.247 0-5.56-2.894-5.56-5.996 0-3.1 2.313-5.994 5.56-5.994 3.243 0 5.591 2.886 5.597 5.984h-.001zm15.578-5.173v10.524a.493.493 0 01-.67.448.476.476 0 01-.297-.448v-1.998c-.794 1.584-2.21 2.722-4.007 2.722-2.867 0-4.455-2.481-4.455-5.1v-6.165c0-.242.206-.484.483-.484.276 0 .484.242.484.483V27.5c0 2.068 1.174 4.135 3.488 4.135 3.247 0 4.007-3.032 4.007-6.375v-3.926a.488.488 0 01.623-.463.493.493 0 01.344.48zm24.421 4.288v6.166a.493.493 0 01-.67.45.476.476 0 01-.297-.448V25.64c0-2.067-1.174-4.1-3.489-4.1-2.901 0-4.006 3.1-4.006 5.513v4.754a.493.493 0 01-.671.448.472.472 0 01-.296-.448V25.64c0-2.067-1.175-4.1-3.489-4.1-2.937 0-4.145 2.309-4.042 5.375 0 .069.035.207 0 .24v4.64a.485.485 0 01-.39.486c-.322.053-.577-.17-.577-.474v-10.53c0-.233.159-.45.39-.488.321-.052.577.17.577.476v1.756c.83-1.48 2.315-2.445 4.043-2.445 1.967 0 3.488 1.24 4.109 3.066.794-1.791 2.348-3.067 4.352-3.067 2.832 0 4.456 2.446 4.456 5.065zM.86 27.552l16.13 9.511V.857L.86 27.552zM16.991.857v36.206l16.13-9.51L16.991.856z"/><path d="M16.991 20.24L.86 27.553l16.13 9.511 16.131-9.51-16.13-7.313z"/><path d="M16.991 20.24L.86 27.553l16.13 9.511.001-16.823zM.86 30.604l16.13 22.672V40.109L.86 30.603zm16.131 9.506v13.167l16.141-22.674-16.14 9.506z"/></g><defs><clipPath id="clip0_2_435"><path fill="#fff" transform="translate(.512 .422)" d="M0 0h170.241v53.062H0z"/></clipPath></defs></svg>